# xmcd
#
# Track frame offsets:
#	150
#	10120
#	20390
#	35390
#	47240
#	57745
#	67860
#	78767
#	94802
#	111820
#	127430
#	138090
#	149887
#	158527
#
# Disc length: 2298 seconds
#
# Revision: 4
# Processed by: cddbd v1.5.2PL0 Copyright (c) Steve Scherf et al.
# Submitted via: EasyCDDAExtractor 2011.3.0.0
#
DISCID=be08f80e
DTITLE=BILL HALEY and HIS COMETS - GOLD
DYEAR=1900
DGENRE=Blues
TTITLE0=Rock Around The Clock
TTITLE1=See You Later, Alligator
TTITLE2=Shake, Rattle And Roll
TTITLE3=Skinny Minnie
TTITLE4=High Heel Sneakers
TTITLE5=Hambone
TTITLE6=Harlem Nocturne
TTITLE7=Down By The Riverside
TTITLE8=One Two Three
TTITLE9=Marie
TTITLE10=Mohair Sam
TTITLE11=New Orleans
TTITLE12=No Matter What Shape
TTITLE13=Land Of A 1000 Dances
EXTD=
EXTT0=
EXTT1=
EXTT2=
EXTT3=
EXTT4=
EXTT5=
EXTT6=
EXTT7=
EXTT8=
EXTT9=
EXTT10=
EXTT11=
EXTT12=
EXTT13=
PLAYORDER=
